<svg width="32" height="32" viewBox="0 0 32 32" fill="none" xmlns="http://www.w3.org/2000/svg">
<rect width="32" height="32" rx="8" fill="url(#paint0_linear)"/>
<path d="M15.9999 8.00009C13.3637 7.98941 10.8306 8.98084 8.95607 10.757C7.08151 12.5332 6.01843 14.9492 5.99989 17.4752C5.99806 18.721 6.25585 19.9546 6.75812 21.1037C7.2604 22.2527 7.99705 23.2941 8.92488 24.1667C9.31793 24.5368 9.84693 24.7442 10.398 24.7442C10.949 24.7442 11.478 24.5368 11.8711 24.1667C12.0645 23.9844 12.2181 23.7669 12.3229 23.5271C12.4278 23.2873 12.4818 23.0298 12.4818 22.7698C12.4818 22.5098 12.4278 22.2524 12.3229 22.0126C12.2181 21.7727 12.0645 21.5553 11.8711 21.3729C11.3302 20.8632 10.9006 20.2554 10.6074 19.585C10.3141 18.9145 10.1631 18.1948 10.1631 17.4679C10.1631 16.741 10.3141 16.0213 10.6074 15.3508C10.9006 14.6804 11.3302 14.0726 11.8711 13.5629C12.9705 12.5265 14.4509 11.9457 15.9931 11.9457C17.5353 11.9457 19.0157 12.5265 20.1151 13.5629C20.656 14.0726 21.0856 14.6804 21.3789 15.3508C21.6721 16.0213 21.8231 16.741 21.8231 17.4679C21.8231 18.1948 21.6721 18.9145 21.3789 19.585C21.0856 20.2554 20.656 20.8632 20.1151 21.3729C19.9217 21.5553 19.7681 21.7727 19.6633 22.0126C19.5584 22.2524 19.5044 22.5098 19.5044 22.7698C19.5044 23.0298 19.5584 23.2873 19.6633 23.5271C19.7681 23.7669 19.9217 23.9844 20.1151 24.1667C20.5082 24.5368 21.0372 24.7442 21.5882 24.7442C22.1393 24.7442 22.6683 24.5368 23.0613 24.1667C23.9916 23.2952 24.7308 22.2543 25.2354 21.1052C25.74 19.9561 25.9999 18.7219 25.9999 17.4752C25.9813 14.9492 24.9183 12.5332 23.0437 10.757C21.1691 8.98084 18.6361 7.98941 15.9999 8.00009Z" fill="white"/>
<defs>
<linearGradient id="paint0_linear" x1="0.322221" y1="9.75611" x2="33.3804" y2="15.8971" gradientUnits="userSpaceOnUse">
<stop stop-color="#00A5F0"/>
<stop offset="1" stop-color="#00D7D7"/>
</linearGradient>
</defs>
</svg>
