<svg width="706" height="542" viewBox="0 0 706 542" fill="none" xmlns="http://www.w3.org/2000/svg">
<path d="M386.5 28.0025C313.609 27.6958 243.57 56.176 191.739 107.199C139.907 158.222 110.513 227.624 110 300.189C109.95 335.976 117.078 371.413 130.965 404.421C144.853 437.429 165.222 467.344 190.876 492.412C201.744 503.043 216.371 509 231.607 509C246.844 509 261.471 503.043 272.339 492.412C277.686 487.173 281.934 480.927 284.833 474.037C287.732 467.148 289.225 459.753 289.225 452.284C289.225 444.814 287.732 437.42 284.833 430.53C281.934 423.641 277.686 417.395 272.339 412.156C257.383 397.513 245.505 380.053 237.397 360.794C229.289 341.535 225.113 320.861 225.113 299.979C225.113 279.096 229.289 258.422 237.397 239.163C245.505 219.904 257.383 202.444 272.339 187.801C302.737 158.029 343.671 141.344 386.313 141.344C428.955 141.344 469.889 158.029 500.287 187.801C515.243 202.444 527.121 219.904 535.229 239.163C543.337 258.422 547.512 279.096 547.512 299.979C547.512 320.861 543.337 341.535 535.229 360.794C527.121 380.053 515.243 397.513 500.287 412.156C494.939 417.395 490.692 423.641 487.793 430.53C484.894 437.42 483.401 444.814 483.401 452.284C483.401 459.753 484.894 467.148 487.793 474.037C490.692 480.927 494.939 487.173 500.287 492.412C511.155 503.043 525.782 509 541.018 509C556.255 509 570.881 503.043 581.749 492.412C607.472 467.375 627.909 437.474 641.862 404.465C655.815 371.455 663.002 336.003 663 300.189C662.487 227.624 633.093 158.222 581.262 107.199C529.43 56.176 459.391 27.6958 386.5 28.0025Z" fill="url(#paint0_linear)"/>
<path d="M266.644 479.669L271.008 291.479C271.123 286.492 274.312 282.097 279.017 280.439L571.04 177.574C578.189 175.056 585.854 179.715 586.91 187.221L617.695 406.013C618.568 412.219 614.519 418.051 608.4 419.403L281.229 491.665C273.627 493.344 266.463 487.452 266.644 479.669Z"/>
<path d="M3.07356 264.869L55.6692 51.718C57.1641 45.6596 63.053 41.7579 69.2149 42.7435L425.915 99.7924C432.655 100.87 437.14 107.346 435.779 114.035L390.887 334.613C389.589 340.989 383.446 345.17 377.038 344.036L12.6334 279.56C5.79689 278.35 1.41032 271.609 3.07356 264.869Z"/>
<defs>
<linearGradient id="paint0_linear" x1="442.5" y1="233" x2="395.452" y2="478.587" gradientUnits="userSpaceOnUse">
<stop stop-color="white"/>
<stop offset="1" stop-color="white" stop-opacity="0"/>
</linearGradient>
</defs>
</svg>
