<svg width="45" height="45" viewBox="0 0 45 45" fill="none" xmlns="http://www.w3.org/2000/svg">
<rect width="45" height="45" rx="8" fill="#00D7D7"/>
<path opacity="0.7" d="M22.4541 13V33" stroke="white" stroke-width="2" stroke-linecap="round" stroke-linejoin="round"/>
<path d="M27 16.6364H20.1818C19.3379 16.6364 18.5286 16.9716 17.9319 17.5683C17.3352 18.165 17 18.9743 17 19.8182C17 20.662 17.3352 21.4713 17.9319 22.0681C18.5286 22.6648 19.3379 23 20.1818 23H24.7273C25.5711 23 26.3805 23.3352 26.9772 23.9319C27.5739 24.5286 27.9091 25.3379 27.9091 26.1818C27.9091 27.0257 27.5739 27.835 26.9772 28.4317C26.3805 29.0284 25.5711 29.3636 24.7273 29.3636H17" stroke="white" stroke-width="2" stroke-linecap="round" stroke-linejoin="round"/>
</svg>
