<svg width="668" height="538" viewBox="0 0 668 538" fill="none" xmlns="http://www.w3.org/2000/svg">
<g opacity="0.2" filter="url(#filter0_f)">
<path d="M305.12 485.319L309.484 297.129C309.599 292.142 312.788 287.746 317.494 286.089L609.516 183.224C616.665 180.706 624.33 185.364 625.386 192.87L656.171 411.663C657.044 417.868 652.995 423.701 646.876 425.052L319.705 497.315C312.103 498.994 304.939 493.102 305.12 485.319Z" fill="url(#paint0_linear)"/>
</g>
<path d="M266.644 438.669L271.008 250.479C271.123 245.492 274.312 241.097 279.017 239.439L571.04 136.574C578.189 134.056 585.854 138.715 586.91 146.221L617.695 365.013C618.568 371.219 614.519 377.051 608.4 378.403L281.229 450.665C273.627 452.344 266.463 446.452 266.644 438.669Z"/>
<g style="mix-blend-mode:multiply" opacity="0.6">
<path d="M266.772 437.888L271.135 249.699C271.251 244.711 274.44 240.316 279.145 238.659L571.168 135.794C578.317 133.275 585.982 137.934 587.038 145.44L617.823 364.233C618.696 370.438 614.647 376.271 608.528 377.622L281.357 449.884C273.755 451.563 266.591 445.671 266.772 437.888Z" fill="url(#paint1_radial)"/>
</g>
<path d="M3.07355 223.869L55.6692 10.718C57.1641 4.65956 63.053 0.757949 69.2149 1.74345L425.915 58.7924C432.655 59.8704 437.14 66.3461 435.779 73.035L390.887 293.613C389.589 299.99 383.446 304.17 377.038 303.036L12.6334 238.56C5.79689 237.35 1.41032 230.609 3.07355 223.869Z"/>
<defs>
<filter id="filter0_f" x="265.117" y="142.536" width="431.172" height="395.066" filterUnits="userSpaceOnUse" color-interpolation-filters="sRGB">
<feFlood flood-opacity="0" result="BackgroundImageFix"/>
<feBlend mode="normal" in="SourceGraphic" in2="BackgroundImageFix" result="shape"/>
<feGaussianBlur stdDeviation="20" result="effect1_foregroundBlur"/>
</filter>
<linearGradient id="paint0_linear" x1="200.822" y1="724.811" x2="525.77" y2="255.049" gradientUnits="userSpaceOnUse">
<stop stop-color="#1A4263"/>
<stop offset="1" stop-color="#0073CE" stop-opacity="0"/>
</linearGradient>
<radialGradient id="paint1_radial" cx="0" cy="0" r="1" gradientUnits="userSpaceOnUse" gradientTransform="translate(309.811 271.7) rotate(53.7473) scale(225.05 246.483)">
<stop stop-color="#03385E"/>
<stop offset="1" stop-color="#00D3D9" stop-opacity="0"/>
</radialGradient>
</defs>
</svg>
