<svg width="542" height="120" viewBox="0 0 542 120" fill="none" xmlns="http://www.w3.org/2000/svg">
<path fill-rule="evenodd" clip-rule="evenodd" d="M253.992 36.479C255.283 35.1515 256.298 33.5802 256.976 31.8567C257.654 30.1332 257.983 28.2919 257.942 26.4401C257.902 24.5883 257.493 22.7631 256.741 21.0709C255.988 19.3786 254.906 17.8531 253.557 16.5832C245.028 8.49804 234.327 3.07364 222.764 0.973409C211.201 -1.12683 199.276 0.188134 188.448 4.75747C177.62 9.32681 168.359 16.9525 161.796 26.7019C155.233 36.4513 151.654 47.9019 151.496 59.6533C151.654 71.4047 155.233 82.8552 161.796 92.6046C168.359 102.354 177.62 109.98 188.448 114.549C199.276 119.118 211.201 120.433 222.764 118.333C234.327 116.233 245.028 110.808 253.557 102.723C254.906 101.453 255.988 99.9279 256.741 98.2357C257.493 96.5434 257.902 94.7182 257.942 92.8664C257.983 91.0147 257.654 89.1734 256.976 87.4498C256.298 85.7263 255.283 84.155 253.992 82.8275C251.365 80.1333 247.784 78.5789 244.022 78.4991C240.26 78.4193 236.617 79.8206 233.879 82.4011C227.803 88.1343 219.733 91.2758 211.38 91.1594C203.028 91.043 195.048 87.6779 189.135 81.7776C186.225 78.8747 183.917 75.4262 182.341 71.6298C180.766 67.8334 179.956 63.7635 179.956 59.6533C179.956 55.543 180.766 51.4732 182.341 47.6767C183.917 43.8803 186.225 40.4319 189.135 37.5289C195.048 31.6286 203.028 28.2635 211.38 28.1471C219.733 28.0307 227.803 31.1722 233.879 36.9054C236.617 39.4863 240.261 40.8876 244.023 40.8071C247.785 40.7265 251.366 39.1707 253.992 36.475V36.479ZM20.1812 19.6486C32.9784 6.99471 50.271 -0.0684875 68.2677 0.00756585C86.2645 -0.0684875 103.557 6.99471 116.354 19.6486C129.151 32.3025 136.409 49.5145 136.535 67.5109C136.536 76.3927 134.761 85.1851 131.316 93.3716C127.871 101.558 122.825 108.974 116.475 115.183C113.791 117.819 110.18 119.297 106.418 119.297C102.656 119.297 99.0449 117.819 96.3616 115.183C95.0413 113.884 93.9927 112.334 93.2769 110.626C92.5611 108.917 92.1925 107.083 92.1925 105.231C92.1925 103.378 92.5611 101.545 93.2769 99.8359C93.9927 98.1274 95.0413 96.5783 96.3616 95.279C100.054 91.6476 102.987 87.3175 104.989 82.5411C106.991 77.7647 108.022 72.6376 108.022 67.4586C108.022 62.2797 106.991 57.1525 104.989 52.3761C102.987 47.5997 100.054 43.2696 96.3616 39.6383C88.8564 32.2547 78.7498 28.1168 68.2215 28.1168C57.6931 28.1168 47.5866 32.2547 40.0813 39.6383C36.3888 43.2696 33.4561 47.5997 31.4542 52.3761C29.4524 57.1525 28.4214 62.2797 28.4214 67.4586C28.4214 72.6376 29.4524 77.7647 31.4542 82.5411C33.4561 87.3175 36.3888 91.6476 40.0813 95.279C41.4017 96.5783 42.4503 98.1274 43.1661 99.8359C43.8818 101.545 44.2504 103.378 44.2504 105.231C44.2504 107.083 43.8818 108.917 43.1661 110.626C42.4503 112.334 41.4017 113.884 40.0813 115.183C37.398 117.819 33.7866 119.297 30.0248 119.297C26.263 119.297 22.6516 117.819 19.9683 115.183C13.6342 108.966 8.60527 101.547 5.17636 93.3607C1.74745 85.1746 -0.0123819 76.3862 6.55718e-05 67.5109C0.126629 49.5145 7.38406 32.3025 20.1812 19.6486ZM329.899 0.00960237C313.992 -0.063212 298.707 6.17617 287.395 17.359C276.083 28.5418 269.669 43.7549 269.559 59.6608C269.559 75.6637 275.917 91.0112 287.232 102.327C298.548 113.643 313.896 120 329.899 120C345.901 120 361.249 113.643 372.565 102.327C383.88 91.0112 390.238 75.6637 390.238 59.6608C390.128 43.7549 383.714 28.5418 372.402 17.359C361.09 6.17617 345.805 -0.063212 329.899 0.00960237ZM329.899 91.1659C323.682 91.0953 317.626 89.1873 312.491 85.6822C307.357 82.1771 303.374 77.2315 301.044 71.4679C298.714 65.7043 298.141 59.3802 299.397 53.2917C300.654 47.2032 303.683 41.6224 308.104 37.2516C312.525 32.8809 318.14 29.9157 324.242 28.7291C330.345 27.5425 336.662 28.1876 342.398 30.5832C348.135 32.9788 353.035 37.0179 356.481 42.192C359.927 47.3661 361.766 53.4441 361.766 59.6608C361.742 63.8219 360.899 67.9376 359.284 71.7729C357.67 75.6081 355.316 79.0879 352.357 82.0134C349.398 84.9389 345.892 87.253 342.038 88.8233C338.185 90.3937 334.06 91.1897 329.899 91.1659ZM472.862 0.00959716C454.866 -0.0653884 437.574 6.99828 424.778 19.6521C411.981 32.3058 404.725 49.5172 404.598 67.513C404.585 76.3898 406.345 85.1799 409.775 93.3676C413.204 101.555 418.235 108.975 424.57 115.193C427.254 117.829 430.865 119.307 434.627 119.307C438.389 119.307 442 117.829 444.683 115.193C446.004 113.894 447.052 112.345 447.768 110.636C448.484 108.927 448.852 107.093 448.852 105.241C448.852 103.389 448.484 101.555 447.768 99.846C447.052 98.1374 446.004 96.5884 444.683 95.2891C440.991 91.6578 438.059 87.3279 436.058 82.5519C434.056 77.7759 433.026 72.6492 433.026 67.4707C433.026 62.2922 434.056 57.1656 436.058 52.3895C438.059 47.6135 440.991 43.2837 444.683 39.6524C452.188 32.2691 462.294 28.1312 472.821 28.1312C483.349 28.1312 493.455 32.2691 500.96 39.6524C504.651 43.2837 507.584 47.6135 509.585 52.3895C511.587 57.1656 512.617 62.2922 512.617 67.4707C512.617 72.6492 511.587 77.7759 509.585 82.5519C507.584 87.3279 504.651 91.6578 500.96 95.2891C499.639 96.588 498.591 98.1367 497.875 99.845C497.159 101.553 496.791 103.387 496.791 105.239C496.791 107.091 497.159 108.925 497.875 110.633C498.591 112.341 499.639 113.89 500.96 115.189C503.643 117.825 507.254 119.303 511.016 119.303C514.778 119.303 518.389 117.825 521.073 115.189C527.424 108.979 532.47 101.563 535.915 93.3758C539.36 85.1885 541.134 76.3954 541.133 67.513C541.007 49.5158 533.749 32.3032 520.951 19.6492C508.153 6.9952 490.859 -0.067524 472.862 0.00959716ZM226.052 59.5804C226.095 67.347 219.761 73.6784 211.906 73.7219C204.05 73.7653 197.647 67.5044 197.604 59.7378C197.561 51.9711 203.895 45.6397 211.75 45.5962C219.606 45.5528 226.009 51.8137 226.052 59.5804Z" fill="white"/>
</svg>
