<svg width="467" height="509" viewBox="0 0 467 509" fill="none" xmlns="http://www.w3.org/2000/svg">
<path d="M255.468 0.00266829C188.123 -0.305618 123.405 26.1111 75.5124 73.4576C27.6199 120.804 0.463838 185.214 0 252.558C0 320.312 26.9148 385.291 74.8243 433.201C122.734 481.11 187.713 508.025 255.468 508.025C323.222 508.025 388.2 481.11 436.11 433.201C484.019 385.291 510.935 320.312 510.935 252.558C510.471 185.214 483.314 120.804 435.422 73.4576C387.529 26.1111 322.812 -0.305618 255.468 0.00266829ZM255.468 385.946C229.148 385.647 203.505 377.569 181.767 362.729C160.029 347.889 143.166 326.95 133.301 302.547C123.437 278.145 121.011 251.37 126.329 225.592C131.648 199.814 144.474 176.185 163.192 157.68C181.91 139.175 205.683 126.621 231.52 121.597C257.357 116.573 284.102 119.304 308.391 129.447C332.679 139.59 353.423 156.691 368.014 178.597C382.605 200.504 390.39 226.237 390.388 252.558C390.288 270.175 386.718 287.601 379.883 303.839C373.048 320.077 363.082 334.809 350.554 347.196C338.025 359.582 323.18 369.379 306.865 376.028C290.55 382.677 273.085 386.047 255.468 385.946Z" fill="url(#paint0_linear)"/>
<defs>
<linearGradient id="paint0_linear" x1="585.5" y1="508" x2="53.5155" y2="262.824" gradientUnits="userSpaceOnUse">
<stop stop-color="#00A5F0"/>
<stop offset="1" stop-color="#00D7D7" stop-opacity="0"/>
</linearGradient>
</defs>
</svg>
