<svg width="19" height="87" viewBox="0 0 19 87" fill="none" xmlns="http://www.w3.org/2000/svg">
<path fill-rule="evenodd" clip-rule="evenodd" d="M13.2241 41.1374C13.4343 41.3419 13.6831 41.5025 13.956 41.6099C14.2289 41.7173 14.5204 41.7693 14.8136 41.7629C15.1068 41.7565 15.3958 41.6918 15.6638 41.5726C15.9317 41.4534 16.1733 41.2821 16.3743 41.0686C17.6545 39.7181 18.5133 38.0238 18.8459 36.193C19.1784 34.3621 18.9702 32.474 18.2467 30.7596C17.5232 29.0452 16.3158 27.5788 14.7722 26.5397C13.2285 25.5006 11.4155 24.9338 9.55486 24.9088C7.69422 24.9338 5.88121 25.5006 4.33755 26.5397C2.79388 27.5788 1.58648 29.0452 0.862998 30.7596C0.139517 32.474 -0.0686851 34.3621 0.263853 36.193C0.596392 38.0238 1.45526 39.7181 2.73541 41.0686C2.93648 41.2821 3.17802 41.4534 3.44596 41.5726C3.71391 41.6918 4.0029 41.7565 4.2961 41.7629C4.58929 41.7693 4.88083 41.7173 5.15373 41.6099C5.42662 41.5025 5.67541 41.3419 5.8856 41.1374C6.31218 40.7214 6.5583 40.1545 6.57093 39.5589C6.58356 38.9632 6.36168 38.3864 5.95311 37.9528C5.04534 36.9908 4.54794 35.7131 4.56637 34.3906C4.5848 33.068 5.11761 31.8047 6.05183 30.8684C6.51147 30.4077 7.05747 30.0421 7.65857 29.7927C8.25968 29.5433 8.90407 29.415 9.55486 29.415C10.2057 29.415 10.8501 29.5433 11.4512 29.7927C12.0523 30.0421 12.5983 30.4077 13.0579 30.8684C13.9921 31.8047 14.5249 33.068 14.5434 34.3906C14.5618 35.7131 14.0644 36.9908 13.1566 37.9528C12.748 38.3864 12.5261 38.9633 12.5389 39.559C12.5516 40.1547 12.7979 40.7216 13.2248 41.1374L13.2241 41.1374ZM18.9985 75.7918C19.0104 72.9425 17.8919 70.2046 15.8884 68.1785C13.8849 66.1524 11.1598 65.0035 8.31041 64.9834C6.9049 64.9814 5.51313 65.26 4.21675 65.803C2.92038 66.3461 1.7455 67.1425 0.76106 68.1457C0.343604 68.5705 0.109691 69.1423 0.109691 69.738C0.10969 70.3336 0.343604 70.9054 0.76106 71.3303C0.966786 71.5393 1.21206 71.7053 1.48258 71.8187C1.75311 71.932 2.04348 71.9903 2.33679 71.9903C2.63009 71.9903 2.92047 71.932 3.19099 71.8187C3.46152 71.7053 3.70679 71.5393 3.91252 71.3303C4.48747 70.7457 5.17303 70.2814 5.92924 69.9645C6.68545 69.6476 7.49717 69.4844 8.3171 69.4844C9.13703 69.4844 9.94875 69.6476 10.705 69.9645C11.4612 70.2814 12.1467 70.7457 12.7217 71.3303C13.8907 72.5185 14.5459 74.1186 14.5459 75.7855C14.5459 77.4524 13.8907 79.0525 12.7217 80.2407C12.1467 80.8252 11.4612 81.2895 10.705 81.6064C9.94875 81.9233 9.13703 82.0865 8.3171 82.0865C7.49717 82.0865 6.68545 81.9233 5.92924 81.6064C5.17303 81.2895 4.48747 80.8252 3.91252 80.2407C3.70684 80.0317 3.46163 79.8656 3.19115 79.7523C2.92068 79.639 2.63036 79.5806 2.33711 79.5806C2.04385 79.5806 1.75353 79.639 1.48306 79.7523C1.21258 79.8656 0.967368 80.0317 0.761696 80.2407C0.344239 80.6655 0.110327 81.2373 0.110327 81.833C0.110327 82.4286 0.344239 83.0004 0.761696 83.4253C1.74489 84.4309 2.91914 85.2299 4.21545 85.7754C5.51177 86.3208 6.90402 86.6017 8.31041 86.6015C11.16 86.5815 13.8853 85.4323 15.8889 83.406C17.8924 81.3796 19.0107 78.6415 18.9985 75.7918ZM18.9985 53.1558C19.01 50.6373 18.0221 48.2171 16.2515 46.426C14.4809 44.635 12.0721 43.6194 9.55367 43.6021C7.01987 43.6021 4.58984 44.6086 2.79816 46.4003C1.00649 48.192 -5.55782e-05 50.622 -5.5689e-05 53.1558C-5.57997e-05 55.6896 1.00649 58.1196 2.79816 59.9113C4.58984 61.703 7.01986 62.7095 9.55367 62.7095C12.0721 62.6922 14.4809 61.6766 16.2515 59.8856C18.0221 58.0945 19.01 55.6743 18.9985 53.1558ZM4.56535 53.1558C4.57653 52.1716 4.87863 51.2126 5.4336 50.3996C5.98858 49.5867 6.77164 48.9561 7.68421 48.5872C8.59679 48.2183 9.59811 48.1275 10.5621 48.3264C11.5261 48.5253 12.4098 49.005 13.1018 49.705C13.7938 50.405 14.2633 51.294 14.4512 52.2602C14.6391 53.2265 14.537 54.2267 14.1576 55.135C13.7783 56.0433 13.1388 56.8191 12.3196 57.3647C11.5003 57.9104 10.538 58.2015 9.55367 58.2015C8.89483 58.1977 8.24318 58.0642 7.63592 57.8086C7.02867 57.553 6.47771 57.1803 6.0145 56.7118C5.55129 56.2432 5.1849 55.6881 4.93626 55.0779C4.68761 54.4678 4.56158 53.8147 4.56535 53.1558ZM15.8877 4.11725C17.8913 6.14347 19.0096 8.88147 18.9976 11.731C19.0096 14.5805 17.8913 17.3185 15.8877 19.3447C13.8842 21.3709 11.159 22.52 8.30951 22.5401C6.90322 22.5401 5.5111 22.2592 4.2149 21.7137C2.9187 21.1683 1.74456 20.3693 0.761434 19.3638C0.343978 18.9389 0.110065 18.3671 0.110065 17.7715C0.110065 17.1758 0.343978 16.604 0.761434 16.1792C0.967161 15.9701 1.21243 15.8041 1.48296 15.6908C1.75348 15.5774 2.04386 15.5191 2.33716 15.5191C2.63047 15.5191 2.92084 15.5774 3.19137 15.6908C3.46189 15.8041 3.70716 15.9701 3.91289 16.1792C4.48786 16.7638 5.17346 17.2282 5.92972 17.5451C6.68599 17.8621 7.49779 18.0253 8.31779 18.0253C9.1378 18.0253 9.9496 17.8621 10.7059 17.5451C11.4621 17.2282 12.1477 16.7638 12.7227 16.1792C13.8918 14.9908 14.5469 13.3906 14.5469 11.7236C14.5469 10.0567 13.8918 8.45644 12.7227 7.26811C12.1477 6.68345 11.4621 6.21911 10.7059 5.90214C9.9496 5.58518 9.1378 5.42194 8.31779 5.42194C7.49779 5.42194 6.68599 5.58518 5.92972 5.90214C5.17346 6.21911 4.48786 6.68345 3.91289 7.2681C3.70716 7.47716 3.46189 7.64319 3.19137 7.75652C2.92084 7.86985 2.63047 7.92822 2.33716 7.92822C2.04386 7.92822 1.75348 7.86985 1.48296 7.75652C1.21243 7.64319 0.967161 7.47716 0.761434 7.2681C0.343979 6.84325 0.110065 6.27144 0.110065 5.67582C0.110065 5.08019 0.343979 4.50839 0.761434 4.08353C1.74578 3.08063 2.92047 2.28438 4.21662 1.74147C5.51276 1.19856 6.90426 0.919914 8.30951 0.921885C11.159 0.941924 13.8842 2.09102 15.8877 4.11725ZM9.56648 36.7134C8.33675 36.7202 7.33428 35.7174 7.3274 34.4736C7.32052 33.2298 8.31183 32.216 9.54156 32.2092C10.7713 32.2024 11.7738 33.2052 11.7806 34.449C11.7875 35.6928 10.7962 36.7066 9.56648 36.7134Z" fill="#C4F3F7"/>
</svg>
