<svg width="108" height="103" viewBox="0 0 108 103" fill="none" xmlns="http://www.w3.org/2000/svg">
<path d="M82.3841 -59.9581C60.8856 -60.0564 40.2257 -51.6328 24.9369 -36.5352C9.64816 -21.4376 0.979126 -0.89888 0.831055 20.5753C0.831055 42.1804 9.42308 62.9006 24.7172 78.1777C40.0114 93.4548 60.7549 102.037 82.3841 102.037C104.013 102.037 124.756 93.4548 140.051 78.1777C155.345 62.9006 163.937 42.1804 163.937 20.5753C163.789 -0.89888 155.12 -21.4376 139.831 -36.5352C124.542 -51.6328 103.882 -60.0564 82.3841 -59.9581ZM82.3841 63.1094C73.9822 63.0141 65.7962 60.4382 58.8566 55.7061C51.917 50.9739 46.534 44.297 43.3849 36.5157C40.2358 28.7344 39.4613 20.1964 41.1592 11.9765C42.8572 3.75661 46.9517 -3.77791 52.927 -9.6787C58.9022 -15.5795 66.4912 -19.5828 74.7391 -21.1848C82.9871 -22.7868 91.5252 -21.9158 99.2787 -18.6816C107.032 -15.4473 113.655 -9.99429 118.312 -3.00884C122.97 3.9766 125.455 12.1823 125.455 20.5753C125.423 26.1931 124.283 31.7496 122.101 36.9274C119.919 42.1053 116.738 46.8032 112.738 50.7529C108.739 54.7026 104 57.8267 98.7916 59.9468C93.5833 62.0669 88.0081 63.1416 82.3841 63.1094Z" fill="url(#paint0_linear)"/>
<defs>
<linearGradient id="paint0_linear" x1="39.5158" y1="-122.779" x2="126.756" y2="88.721" gradientUnits="userSpaceOnUse">
<stop stop-color="white"/>
<stop offset="1" stop-color="white" stop-opacity="0"/>
</linearGradient>
</defs>
</svg>
