<svg width="141" height="140" viewBox="0 0 141 140" fill="none" xmlns="http://www.w3.org/2000/svg">
<path opacity="0.3" d="M70.3329 0.000731732C51.8442 -0.0838103 34.0766 7.1605 20.9283 20.1444C7.77998 33.1284 0.324607 50.7917 0.197266 69.2595C0.197266 87.8399 7.5864 105.659 20.7394 118.798C33.8924 131.936 51.7317 139.317 70.3329 139.317C88.934 139.317 106.773 131.936 119.926 118.798C133.079 105.659 140.468 87.8399 140.468 69.2595C140.341 50.7917 132.885 33.1284 119.737 20.1444C106.589 7.1605 88.8215 -0.0838103 70.3329 0.000731732ZM70.3329 105.839C63.1072 105.757 56.0673 103.542 50.0992 99.4719C44.1312 95.4023 39.5018 89.6601 36.7936 82.9682C34.0854 76.2763 33.4193 68.9337 34.8795 61.8645C36.3397 54.7954 39.861 48.3157 44.9997 43.241C50.1385 38.1664 56.665 34.7235 63.7582 33.3458C70.8514 31.9681 78.1942 32.7171 84.8622 35.4986C91.5303 38.28 97.2255 42.9696 101.231 48.9771C105.237 54.9846 107.374 62.0415 107.374 69.2595C107.346 74.0908 106.366 78.8693 104.49 83.3223C102.613 87.7753 99.8772 91.8155 96.4376 95.2122C92.9981 98.6089 88.9224 101.296 84.4433 103.119C79.9642 104.942 75.1695 105.867 70.3329 105.839Z" fill="url(#paint0_linear)"/>
<defs>
<linearGradient id="paint0_linear" x1="26.0288" y1="-13.382" x2="36.9924" y2="104.298" gradientUnits="userSpaceOnUse">
<stop stop-color="white"/>
<stop offset="1" stop-color="white" stop-opacity="0"/>
</linearGradient>
</defs>
</svg>
