<svg width="192" height="168" viewBox="0 0 192 168" fill="none" xmlns="http://www.w3.org/2000/svg">
<path opacity="0.45" d="M95.5153 0.579427C70.335 0.474488 46.14 10.3597 28.2353 28.0681C10.3305 45.7764 0.177188 69.8628 9.99567e-05 95.047C-0.0180822 107.47 2.44441 119.771 7.2432 131.229C12.042 142.687 19.0803 153.072 27.9453 161.773C31.6998 165.462 36.7529 167.53 42.0165 167.53C47.2802 167.53 52.3333 165.462 56.0878 161.773C57.9352 159.954 59.4024 157.786 60.4039 155.395C61.4055 153.004 61.921 150.438 61.921 147.845C61.921 145.253 61.4055 142.687 60.4039 140.295C59.4024 137.904 57.9352 135.737 56.0878 133.918C50.922 128.836 46.8192 122.777 44.0187 116.093C41.2181 109.409 39.776 102.235 39.776 94.9878C39.776 87.7408 41.2181 80.5663 44.0187 73.8825C46.8192 67.1987 50.922 61.1393 56.0878 56.0575C66.5883 45.7249 80.7285 39.9342 95.459 39.9342C110.189 39.9342 124.33 45.7249 134.83 56.0575C139.996 61.1393 144.099 67.1987 146.899 73.8825C149.7 80.5663 151.142 87.7408 151.142 94.9878C151.142 102.235 149.7 109.409 146.899 116.093C144.099 122.777 139.996 128.836 134.83 133.918C132.983 135.736 131.515 137.903 130.514 140.294C129.513 142.685 128.997 145.251 128.997 147.843C128.997 150.435 129.513 153.001 130.514 155.391C131.515 157.782 132.983 159.949 134.83 161.767C138.585 165.457 143.638 167.524 148.901 167.524C154.165 167.524 159.218 165.457 162.973 161.767C171.859 153.077 178.921 142.698 183.741 131.241C188.561 119.783 191.043 107.478 191.042 95.047C190.864 69.8608 180.709 45.7727 162.802 28.0641C144.895 10.3554 120.698 0.4715 95.5153 0.579427Z" fill="url(#paint0_linear)"/>
<defs>
<linearGradient id="paint0_linear" x1="165.28" y1="177.71" x2="44.5608" y2="52.973" gradientUnits="userSpaceOnUse">
<stop stop-color="white"/>
<stop offset="1" stop-color="white" stop-opacity="0"/>
</linearGradient>
</defs>
</svg>
