<svg width="78" height="162" viewBox="0 0 78 162" fill="none" xmlns="http://www.w3.org/2000/svg">
<path opacity="0.45" d="M82.4104 0.000850851C60.912 -0.0974538 40.252 8.32616 24.9633 23.4238C9.67453 38.5214 1.00549 59.0601 0.857422 80.5343C0.857422 102.139 9.44944 122.86 24.7436 138.137C40.0378 153.414 60.7812 161.996 82.4104 161.996C104.04 161.996 124.783 153.414 140.077 138.137C155.371 122.86 163.963 102.139 163.963 80.5343C163.815 59.0601 155.146 38.5214 139.857 23.4238C124.569 8.32616 103.909 -0.0974538 82.4104 0.000850851ZM82.4104 123.068C74.0086 122.973 65.8225 120.397 58.883 115.665C51.9434 110.933 46.5603 104.256 43.4113 96.4747C40.2622 88.6934 39.4877 80.1554 41.1856 71.9355C42.8835 63.7156 46.9781 56.1811 52.9533 50.2803C58.9286 44.3795 66.5176 40.3762 74.7655 38.7742C83.0134 37.1722 91.5516 38.0431 99.3051 41.2774C107.059 44.5117 113.681 49.9647 118.339 56.9501C122.997 63.9356 125.482 72.1412 125.481 80.5343C125.449 86.1521 124.31 91.7085 122.128 96.8864C119.946 102.064 116.764 106.762 112.765 110.712C108.765 114.662 104.026 117.786 98.8179 119.906C93.6097 122.026 88.0345 123.101 82.4104 123.068Z" fill="url(#paint0_linear)"/>
<defs>
<linearGradient id="paint0_linear" x1="39.5422" y1="-62.8197" x2="126.782" y2="148.68" gradientUnits="userSpaceOnUse">
<stop stop-color="white"/>
<stop offset="1" stop-color="white" stop-opacity="0"/>
</linearGradient>
</defs>
</svg>
