<svg width="430" height="374" viewBox="0 0 430 374" fill="none" xmlns="http://www.w3.org/2000/svg">
<path d="M214.891 0.00190492C158.242 -0.236428 103.808 21.8979 63.5259 61.5521C23.2433 101.206 0.398598 155.144 0.000206405 211.541C-0.0389752 239.354 5.50058 266.894 16.294 292.548C27.0874 318.201 42.9174 341.451 62.8556 360.933C71.3019 369.195 82.6698 373.825 94.5112 373.825C106.353 373.825 117.72 369.195 126.167 360.933C130.323 356.861 133.624 352.007 135.877 346.652C138.13 341.298 139.29 335.551 139.29 329.746C139.29 323.941 138.13 318.194 135.877 312.84C133.624 307.485 130.323 302.631 126.167 298.559C114.544 287.179 105.312 273.61 99.0107 258.642C92.7092 243.674 89.4639 227.607 89.4639 211.377C89.4639 195.147 92.7092 179.08 99.0107 164.112C105.312 149.144 114.544 135.575 126.167 124.195C149.792 101.057 181.605 88.0893 214.745 88.0893C247.886 88.0893 279.699 101.057 303.324 124.195C314.947 135.575 324.179 149.144 330.48 164.112C336.782 179.08 340.027 195.147 340.027 211.377C340.027 227.607 336.782 243.674 330.48 258.642C324.179 273.61 314.947 287.179 303.324 298.559C299.168 302.631 295.867 307.485 293.614 312.84C291.361 318.194 290.201 323.941 290.201 329.746C290.201 335.551 291.361 341.298 293.614 346.652C295.867 352.007 299.168 356.861 303.324 360.933C311.771 369.195 323.138 373.825 334.98 373.825C346.821 373.825 358.189 369.195 366.635 360.933C386.626 341.475 402.51 318.236 413.354 292.582C424.198 266.927 429.783 239.374 429.782 211.541C429.384 155.144 406.539 101.206 366.256 61.5521C325.974 21.8979 271.541 -0.236428 214.891 0.00190492Z" fill="url(#paint0_linear)"/>
<defs>
<linearGradient id="paint0_linear" x1="258.413" y1="159.322" x2="214.84" y2="342.429" gradientUnits="userSpaceOnUse">
<stop stop-color="white"/>
<stop offset="1" stop-color="white" stop-opacity="0"/>
</linearGradient>
</defs>
</svg>
